<svg width="41" height="41" viewBox="0 0 41 41" fill="none" xmlns="http://www.w3.org/2000/svg">
<path d="M20.8809 19.8867L20.5 20.2626L20.1173 19.8867C19.4062 19.1847 18.4472 18.7911 17.448 18.7911C16.4488 18.7911 15.4898 19.1847 14.7788 19.8867C14.4258 20.2262 14.1451 20.6335 13.9533 21.0841C13.7616 21.5346 13.6627 22.0193 13.6627 22.509C13.6627 22.9987 13.7616 23.4834 13.9533 23.934C14.1451 24.3846 14.4258 24.7918 14.7788 25.1313L20.5 30.75L26.2212 25.1313C26.5741 24.7918 26.8548 24.3846 27.0466 23.934C27.2384 23.4834 27.3372 22.9987 27.3372 22.509C27.3372 22.0193 27.2384 21.5346 27.0466 21.0841C26.8548 20.6335 26.5741 20.2262 26.2212 19.8867C25.5098 19.1846 24.5505 18.7909 23.551 18.7909C22.5516 18.7909 21.5923 19.1846 20.8809 19.8867Z" fill="#F2EFFF"/>
<path d="M37.0828 19.2922L21.7078 3.91721C21.5492 3.75842 21.361 3.63245 21.1537 3.54651C20.9465 3.46056 20.7243 3.41632 20.5 3.41632C20.2756 3.41632 20.0534 3.46056 19.8462 3.54651C19.639 3.63245 19.4507 3.75842 19.2922 3.91721L3.91717 19.2922C3.67833 19.5311 3.51568 19.8355 3.4498 20.1668C3.38391 20.4982 3.41774 20.8416 3.54701 21.1537C3.67628 21.4658 3.89519 21.7326 4.17605 21.9203C4.45692 22.108 4.78714 22.2083 5.12496 22.2083H6.8333V34.1667C6.8333 36.051 8.36567 37.5833 10.25 37.5833H30.75C32.6343 37.5833 34.1666 36.051 34.1666 34.1667V22.2083H35.875C36.2128 22.2083 36.543 22.108 36.8239 21.9203C37.1047 21.7326 37.3236 21.4658 37.4529 21.1537C37.5822 20.8416 37.616 20.4982 37.5501 20.1668C37.4842 19.8355 37.3216 19.5311 37.0828 19.2922ZM30.7517 34.1667H10.25V17.7923L20.5 7.54229L30.75 17.7923V25.625L30.7517 34.1667Z" fill="#F2EFFF"/>
</svg>
