<svg width="39" height="39" viewBox="0 0 39 39" fill="none" xmlns="http://www.w3.org/2000/svg">
<path d="M8.30334 2.93231L6.58734 4.64587L9.14062 7.19794L10.8542 5.48438L8.30212 2.93231H8.30334ZM30.6979 2.93231L28.1446 5.48438L29.8594 7.19794L32.4114 4.64709L30.6967 2.93231H30.6979ZM19.5 3.69281C19.0978 3.69769 18.6908 3.72084 18.2812 3.77081C18.2691 3.77081 18.2569 3.76837 18.2447 3.77081C13.3014 4.33753 9.36731 8.33137 8.68359 13.2527C8.13759 17.2136 9.77072 20.8053 12.4922 23.1185C13.6054 24.0685 14.3584 25.3723 14.625 26.8113V34.1238H17.4037C17.8279 34.8514 18.6018 35.3425 19.5 35.3425C20.3982 35.3425 21.1721 34.8514 21.5962 34.1238H24.375V29.2488H24.4896V27.8009C24.4896 26.0142 25.4182 24.2129 26.9271 22.8126C28.9453 20.7919 30.4688 17.9217 30.4688 14.625C30.4688 8.60437 25.5133 3.63675 19.5 3.69281ZM19.5 6.13031C24.2105 6.0645 28.0312 9.92063 28.0312 14.625C28.0312 17.1771 26.8491 19.4244 25.2123 21.06L25.2513 21.099C23.6247 22.5989 22.5729 24.6197 22.2775 26.8125H16.9467C16.6786 24.7236 15.7828 22.7017 14.09 21.2513C11.9364 19.4232 10.6531 16.6688 11.0821 13.5586C11.6147 9.71953 14.7298 6.63244 18.5469 6.20953C18.8621 6.16559 19.1795 6.13955 19.4976 6.13153L19.5 6.13031ZM2.4375 14.625V17.0625H6.09375V14.625H2.4375ZM32.9062 14.625V17.0625H36.5625V14.625H32.9062ZM9.14062 24.4896L6.58856 27.0404L8.30334 28.7552L10.853 26.2031L9.14062 24.4896ZM29.8594 24.4896L28.1458 26.2031L30.6967 28.7552L32.4114 27.0404L29.8594 24.4896ZM17.0625 29.25H21.9375V31.6875H17.0625V29.25Z" fill="#F2EFFF"/>
</svg>
