<svg width="36" height="36" viewBox="0 0 36 36" fill="none" xmlns="http://www.w3.org/2000/svg">
<path fill-rule="evenodd" clip-rule="evenodd" d="M24 13.5C24 15.0913 23.3679 16.6174 22.2426 17.7426C21.1174 18.8679 19.5913 19.5 18 19.5C16.4087 19.5 14.8826 18.8679 13.7574 17.7426C12.6321 16.6174 12 15.0913 12 13.5C12 11.9087 12.6321 10.3826 13.7574 9.25736C14.8826 8.13214 16.4087 7.5 18 7.5C19.5913 7.5 21.1174 8.13214 22.2426 9.25736C23.3679 10.3826 24 11.9087 24 13.5ZM21 13.5C21 14.2956 20.6839 15.0587 20.1213 15.6213C19.5587 16.1839 18.7956 16.5 18 16.5C17.2044 16.5 16.4413 16.1839 15.8787 15.6213C15.3161 15.0587 15 14.2956 15 13.5C15 12.7044 15.3161 11.9413 15.8787 11.3787C16.4413 10.8161 17.2044 10.5 18 10.5C18.7956 10.5 19.5587 10.8161 20.1213 11.3787C20.6839 11.9413 21 12.7044 21 13.5Z" fill="#F2EFFF"/>
<path fill-rule="evenodd" clip-rule="evenodd" d="M18 1.5C8.8875 1.5 1.5 8.8875 1.5 18C1.5 27.1125 8.8875 34.5 18 34.5C27.1125 34.5 34.5 27.1125 34.5 18C34.5 8.8875 27.1125 1.5 18 1.5ZM4.5 18C4.5 21.135 5.5695 24.021 7.362 26.313C8.62085 24.6598 10.2449 23.3201 12.1071 22.3985C13.9694 21.4768 16.0196 20.9982 18.0975 21C20.1485 20.9981 22.1729 21.4643 24.0164 22.3632C25.8599 23.2621 27.4739 24.5699 28.7355 26.187C30.0352 24.4824 30.9103 22.4928 31.2883 20.3829C31.6664 18.2729 31.5366 16.1033 30.9097 14.0535C30.2828 12.0037 29.1768 10.1326 27.6832 8.59506C26.1896 7.05754 24.3514 5.89779 22.3206 5.21176C20.2898 4.52574 18.1248 4.33316 16.0048 4.64996C13.8848 4.96676 11.8707 5.78384 10.1292 7.03358C8.38762 8.28332 6.96872 9.92981 5.98984 11.8368C5.01097 13.7438 4.50027 15.8565 4.5 18ZM18 31.5C14.9009 31.5047 11.8954 30.4385 9.492 28.482C10.4594 27.0971 11.747 25.9664 13.2453 25.186C14.7436 24.4057 16.4082 23.9988 18.0975 24C19.7657 23.9987 21.4102 24.3954 22.8944 25.1571C24.3785 25.9189 25.6595 27.0238 26.631 28.38C24.2089 30.4001 21.1539 31.5044 18 31.5Z" fill="#F2EFFF"/>
</svg>
