<svg width="36" height="36" viewBox="0 0 36 36" fill="none" xmlns="http://www.w3.org/2000/svg">
<path d="M18.3105 13.0112C17.1416 13.0112 16.1899 13.9331 16.1899 15.0655V20.9346C16.1899 22.0686 17.1411 22.9888 18.3105 22.9888C19.4799 22.9888 20.4311 22.068 20.4311 20.9346V15.0655C20.4306 13.9331 19.4794 13.0112 18.3105 13.0112Z" fill="#A585FF"/>
<path d="M29.25 1.125H6.75C3.64331 1.125 1.125 3.64331 1.125 6.75V29.25C1.125 32.3567 3.64331 34.875 6.75 34.875H29.25C32.3567 34.875 34.875 32.3567 34.875 29.25V6.75C34.875 3.64331 32.3567 1.125 29.25 1.125ZM9.37463 17.1253C9.88988 17.1253 10.3944 17.2311 10.8737 17.4386C11.3295 17.6363 11.7444 17.9173 12.0971 18.2672C12.449 18.6122 12.7323 19.0209 12.9319 19.4715C13.1417 19.9451 13.248 20.4396 13.248 20.9413C13.248 21.4554 13.1456 21.9544 12.9426 22.4246C12.7471 22.8781 12.4649 23.2889 12.1117 23.634C11.3798 24.3508 10.3957 24.7515 9.37125 24.75C8.84812 24.75 8.21813 24.6369 7.74113 24.4367C7.28201 24.2465 6.86378 23.9698 6.50925 23.6216C6.15619 23.276 5.87398 22.8648 5.67844 22.4111C5.47609 21.9432 5.37213 21.4387 5.373 20.9289H7.16231C7.16231 22.0596 8.22094 22.9922 9.37181 22.9922C10.5232 22.9922 11.4592 22.0714 11.4592 20.9413C11.4592 19.8647 10.4653 18.8837 9.37519 18.8837C8.397 18.8837 7.38956 18.4607 6.61162 17.7232C5.82581 16.9774 5.37356 16.0059 5.37356 15.0592C5.37356 14.5451 5.47594 14.0462 5.679 13.5759C5.87466 13.122 6.15685 12.7104 6.50981 12.3643C6.86419 12.0162 7.28248 11.7398 7.74169 11.5504C8.21812 11.3501 8.72663 11.25 9.24919 11.25C9.77175 11.25 10.4023 11.3366 10.8793 11.5357C11.8037 11.9183 12.5433 12.6449 12.942 13.5624C13.1451 14.0316 13.2474 14.5305 13.2474 15.0446H11.4581C11.4581 13.914 10.3995 13.0078 9.24862 13.0078C8.09719 13.0078 7.16119 13.9275 7.16119 15.0587C7.16175 16.0622 8.30025 17.1253 9.37463 17.1253V17.1253ZM22.248 20.9346C22.248 21.4498 22.1434 21.9499 21.9381 22.4201C21.7386 22.8755 21.452 23.2875 21.0943 23.6329C20.7329 23.9827 20.3079 24.2601 19.8422 24.4502C19.3573 24.6487 18.8415 24.75 18.3105 24.75C17.7795 24.75 17.2637 24.6487 16.7771 24.4502C16.3119 24.2598 15.8873 23.9824 15.5261 23.6329C15.1679 23.288 14.8812 22.8759 14.6824 22.4201C14.4773 21.9517 14.3718 21.4459 14.3724 20.9346V15.0654C14.3724 14.5513 14.4771 14.0513 14.6824 13.5799C14.881 13.124 15.1678 12.7119 15.5261 12.3671C15.887 12.0172 16.3117 11.7398 16.7771 11.5498C17.2631 11.3513 17.7789 11.25 18.3105 11.25C18.8421 11.25 19.3573 11.3513 19.8428 11.5498C20.3124 11.7422 20.7337 12.0167 21.0949 12.3671C21.456 12.7176 21.7395 13.1254 21.9386 13.5799C22.1439 14.0513 22.2486 14.5513 22.2486 15.0654V20.9346H22.248ZM27.3757 17.1242C27.8893 17.1242 28.3939 17.2305 28.8748 17.4386C29.79 17.8366 30.5241 18.5614 30.9336 19.4715C31.1417 19.9451 31.248 20.4396 31.248 20.9413C31.248 21.4554 31.1451 21.9544 30.9426 22.4246C30.7475 22.8783 30.4657 23.2895 30.1129 23.6351C29.7585 23.9835 29.3402 24.2602 28.881 24.4502C28.4018 24.6487 27.8938 24.75 27.3707 24.75C26.8476 24.75 26.2187 24.6358 25.74 24.4367C25.2815 24.2461 24.8637 23.9694 24.5092 23.6216C24.1559 23.2763 23.8736 22.865 23.6784 22.4111C23.4762 21.9428 23.3723 21.4379 23.373 20.9278H25.1629C25.1629 22.0596 26.2204 22.9922 27.3712 22.9922C28.5227 22.9922 29.4593 22.0714 29.4593 20.9413C29.4593 19.8647 28.4664 18.8837 27.3763 18.8837C26.3976 18.8837 25.3901 18.4607 24.6116 17.7232C23.8247 16.9774 23.3736 16.0059 23.3736 15.0592C23.3737 14.5571 23.4742 14.0601 23.6694 13.5975C23.8645 13.1348 24.1503 12.7159 24.5098 12.3654C24.864 12.017 25.2818 11.74 25.7406 11.5492C26.2187 11.3501 26.7272 11.25 27.2498 11.25C27.7723 11.25 28.4017 11.3366 28.8804 11.5357C29.3417 11.7281 29.7568 12.0026 30.1123 12.3519C30.4652 12.6974 30.7471 13.1087 30.942 13.5624C31.1445 14.0316 31.2474 14.5305 31.2474 15.0446H29.4581C29.4581 13.914 28.4001 13.0078 27.2492 13.0078C26.0978 13.0078 25.1617 13.9275 25.1617 15.0587C25.1623 16.0622 26.2991 17.1242 27.3757 17.1242Z" fill="#A585FF"/>
</svg>
